<?xml version="1.0" encoding="UTF-8" standalone="no"?>
<!DOCTYPE svg PUBLIC "-//W3C//DTD SVG 1.1//EN"
 "http://www.w3.org/Graphics/SVG/1.1/DTD/svg11.dtd">
<!-- Generated by graphviz version 2.40.1 (20161225.0304)
 -->
<!-- Title: TD Pages: 1 -->
<svg width="814pt" height="380pt"
 viewBox="0.00 0.00 813.81 380.00" xmlns="http://www.w3.org/2000/svg" xmlns:xlink="http://www.w3.org/1999/xlink">
<g id="graph0" class="graph" transform="scale(1 1) rotate(0) translate(4 376)">
<title>TD</title>
<polygon fill="#ffffff" stroke="transparent" points="-4,4 -4,-376 809.8113,-376 809.8113,4 -4,4"/>
<g id="clust2" class="cluster">
<title>cluster_Results</title>
<polygon fill="none" stroke="#000000" points="312.0142,-8 312.0142,-84.8 700.0142,-84.8 700.0142,-8 312.0142,-8"/>
<text text-anchor="middle" x="506.0142" y="-68.2" font-family="Times,serif" font-size="14.00" fill="#000000">/results/</text>
</g>
<g id="clust3" class="cluster">
<title>cluster_Databases</title>
<polygon fill="none" stroke="#000000" points="104.0142,-156.8 104.0142,-233.6 449.0142,-233.6 449.0142,-156.8 104.0142,-156.8"/>
<text text-anchor="middle" x="276.5142" y="-217" font-family="Times,serif" font-size="14.00" fill="#000000">Databases</text>
</g>
<!-- raw_ipums -->
<g id="node1" class="node">
<title>raw_ipums</title>
<polygon fill="none" stroke="#000000" points="242.1538,-372.2014 119.8745,-372.2014 119.8745,-313.3986 242.1538,-313.3986 242.1538,-372.2014"/>
<text text-anchor="middle" x="181.0142" y="-355.4" font-family="Times,serif" font-size="14.00" fill="#000000">IPUMS data pull</text>
<text text-anchor="middle" x="181.0142" y="-338.6" font-family="Times,serif" font-size="14.00" fill="#000000">&#45; usa_00004.dat.gz</text>
<text text-anchor="middle" x="181.0142" y="-321.8" font-family="Times,serif" font-size="14.00" fill="#000000">&#45; usa_00004.xml</text>
</g>
<!-- s_import_ipums -->
<g id="node4" class="node">
<title>s_import_ipums</title>
<polygon fill="none" stroke="#000000" points="181.0142,-277.6 78.5513,-259.6 181.0142,-241.6 283.477,-259.6 181.0142,-277.6"/>
<text text-anchor="middle" x="181.0142" y="-255.4" font-family="Times,serif" font-size="14.00" fill="#000000">import&#45;ipums.R</text>
</g>
<!-- raw_ipums&#45;&gt;s_import_ipums -->
<g id="edge1" class="edge">
<title>raw_ipums&#45;&gt;s_import_ipums</title>
<path fill="none" stroke="#000000" d="M181.0142,-313.2325C181.0142,-305.0486 181.0142,-296.1848 181.0142,-288.065"/>
<polygon fill="#000000" stroke="#000000" points="184.5143,-287.939 181.0142,-277.939 177.5143,-287.9391 184.5143,-287.939"/>
</g>
<!-- db_raw_ipums -->
<g id="node2" class="node">
<title>db_raw_ipums</title>
<path fill="none" stroke="#000000" d="M250.4884,-197.5273C250.4884,-199.3331 219.3489,-200.8 181.0142,-200.8 142.6794,-200.8 111.5399,-199.3331 111.5399,-197.5273 111.5399,-197.5273 111.5399,-168.0727 111.5399,-168.0727 111.5399,-166.2669 142.6794,-164.8 181.0142,-164.8 219.3489,-164.8 250.4884,-166.2669 250.4884,-168.0727 250.4884,-168.0727 250.4884,-197.5273 250.4884,-197.5273"/>
<path fill="none" stroke="#000000" d="M250.4884,-197.5273C250.4884,-195.7214 219.3489,-194.2545 181.0142,-194.2545 142.6794,-194.2545 111.5399,-195.7214 111.5399,-197.5273"/>
<text text-anchor="middle" x="181.0142" y="-178.6" font-family="Times,serif" font-size="14.00" fill="#000000">db/ipums&#45;raw.duckdb</text>
</g>
<!-- s_process_ipums -->
<g id="node5" class="node">
<title>s_process_ipums</title>
<polygon fill="none" stroke="#000000" points="107.0142,-128.8 -.0142,-110.8 107.0142,-92.8 214.0425,-110.8 107.0142,-128.8"/>
<text text-anchor="middle" x="107.0142" y="-106.6" font-family="Times,serif" font-size="14.00" fill="#000000">process&#45;ipums.R</text>
</g>
<!-- db_raw_ipums&#45;&gt;s_process_ipums -->
<g id="edge3" class="edge">
<title>db_raw_ipums&#45;&gt;s_process_ipums</title>
<path fill="none" stroke="#000000" d="M162.3408,-164.6314C152.556,-155.111 140.4834,-143.3647 130.1148,-133.2763"/>
<polygon fill="#000000" stroke="#000000" points="132.5311,-130.744 122.9231,-126.279 127.6496,-135.7611 132.5311,-130.744"/>
</g>
<!-- db_processed_ipums -->
<g id="node3" class="node">
<title>db_processed_ipums</title>
<path fill="none" stroke="#000000" d="M441.1996,-197.5273C441.1996,-199.3331 402.5699,-200.8 355.0142,-200.8 307.4584,-200.8 268.8287,-199.3331 268.8287,-197.5273 268.8287,-197.5273 268.8287,-168.0727 268.8287,-168.0727 268.8287,-166.2669 307.4584,-164.8 355.0142,-164.8 402.5699,-164.8 441.1996,-166.2669 441.1996,-168.0727 441.1996,-168.0727 441.1996,-197.5273 441.1996,-197.5273"/>
<path fill="none" stroke="#000000" d="M441.1996,-197.5273C441.1996,-195.7214 402.5699,-194.2545 355.0142,-194.2545 307.4584,-194.2545 268.8287,-195.7214 268.8287,-197.5273"/>
<text text-anchor="middle" x="355.0142" y="-178.6" font-family="Times,serif" font-size="14.00" fill="#000000">db/ipums&#45;processed.duckdb</text>
</g>
<!-- s_fig01 -->
<g id="node6" class="node">
<title>s_fig01</title>
<polygon fill="none" stroke="#000000" points="289.0142,-128.8 232.0997,-110.8 289.0142,-92.8 345.9286,-110.8 289.0142,-128.8"/>
<text text-anchor="middle" x="289.0142" y="-106.6" font-family="Times,serif" font-size="14.00" fill="#000000">fig01.R</text>
</g>
<!-- db_processed_ipums&#45;&gt;s_fig01 -->
<g id="edge5" class="edge">
<title>db_processed_ipums&#45;&gt;s_fig01</title>
<path fill="none" stroke="#000000" d="M338.3596,-164.6314C329.3521,-154.805 318.171,-142.6075 308.7308,-132.309"/>
<polygon fill="#000000" stroke="#000000" points="311.2533,-129.8812 301.9159,-124.8747 306.0932,-134.6113 311.2533,-129.8812"/>
</g>
<!-- s_fig02 -->
<g id="node7" class="node">
<title>s_fig02</title>
<polygon fill="none" stroke="#000000" points="421.0142,-128.8 364.0997,-110.8 421.0142,-92.8 477.9286,-110.8 421.0142,-128.8"/>
<text text-anchor="middle" x="421.0142" y="-106.6" font-family="Times,serif" font-size="14.00" fill="#000000">fig02.R</text>
</g>
<!-- db_processed_ipums&#45;&gt;s_fig02 -->
<g id="edge6" class="edge">
<title>db_processed_ipums&#45;&gt;s_fig02</title>
<path fill="none" stroke="#000000" d="M371.6687,-164.6314C380.6762,-154.805 391.8573,-142.6075 401.2975,-132.309"/>
<polygon fill="#000000" stroke="#000000" points="403.9352,-134.6113 408.1124,-124.8747 398.7751,-129.8812 403.9352,-134.6113"/>
</g>
<!-- s_fig03 -->
<g id="node8" class="node">
<title>s_fig03</title>
<polygon fill="none" stroke="#000000" points="553.0142,-128.8 496.0997,-110.8 553.0142,-92.8 609.9286,-110.8 553.0142,-128.8"/>
<text text-anchor="middle" x="553.0142" y="-106.6" font-family="Times,serif" font-size="14.00" fill="#000000">fig03.R</text>
</g>
<!-- db_processed_ipums&#45;&gt;s_fig03 -->
<g id="edge7" class="edge">
<title>db_processed_ipums&#45;&gt;s_fig03</title>
<path fill="none" stroke="#000000" d="M404.4672,-164.8171C439.2986,-152.1511 485.1551,-135.476 516.6538,-124.022"/>
<polygon fill="#000000" stroke="#000000" points="518.1421,-127.205 526.3439,-120.4983 515.7499,-120.6265 518.1421,-127.205"/>
</g>
<!-- s_quick_facts -->
<g id="node9" class="node">
<title>s_quick_facts</title>
<polygon fill="none" stroke="#000000" points="717.0142,-128.8 628.4195,-110.8 717.0142,-92.8 805.6088,-110.8 717.0142,-128.8"/>
<text text-anchor="middle" x="717.0142" y="-106.6" font-family="Times,serif" font-size="14.00" fill="#000000">quick&#45;facts.R</text>
</g>
<!-- db_processed_ipums&#45;&gt;s_quick_facts -->
<g id="edge8" class="edge">
<title>db_processed_ipums&#45;&gt;s_quick_facts</title>
<path fill="none" stroke="#000000" d="M438.9741,-166.1008C507.6839,-152.4347 602.8821,-133.5003 662.1648,-121.7093"/>
<polygon fill="#000000" stroke="#000000" points="662.9557,-125.1206 672.0808,-119.737 661.5901,-118.2551 662.9557,-125.1206"/>
</g>
<!-- s_import_ipums&#45;&gt;db_raw_ipums -->
<g id="edge2" class="edge">
<title>s_import_ipums&#45;&gt;db_raw_ipums</title>
<path fill="none" stroke="#000000" d="M181.0142,-241.3995C181.0142,-232.3132 181.0142,-221.1176 181.0142,-210.9549"/>
<polygon fill="#000000" stroke="#000000" points="184.5143,-210.8698 181.0142,-200.8699 177.5143,-210.8699 184.5143,-210.8698"/>
</g>
<!-- s_process_ipums&#45;&gt;db_processed_ipums -->
<g id="edge4" class="edge">
<title>s_process_ipums&#45;&gt;db_processed_ipums</title>
<path fill="none" stroke="#000000" d="M146.2859,-122.2015C183.4522,-132.9917 240.0813,-149.4324 284.9817,-162.468"/>
<polygon fill="#000000" stroke="#000000" points="284.0843,-165.8519 294.6637,-165.2789 286.0361,-159.1295 284.0843,-165.8519"/>
</g>
<!-- r_fig01png -->
<g id="node10" class="node">
<title>r_fig01png</title>
<polygon fill="none" stroke="#000000" points="390.0654,-52 319.9629,-52 319.9629,-16 390.0654,-16 390.0654,-52"/>
<text text-anchor="middle" x="355.0142" y="-29.8" font-family="Times,serif" font-size="14.00" fill="#000000">fig01.png</text>
</g>
<!-- s_fig01&#45;&gt;r_fig01png -->
<g id="edge9" class="edge">
<title>s_fig01&#45;&gt;r_fig01png</title>
<path fill="none" stroke="#000000" d="M301.4283,-96.3545C310.2501,-86.0891 322.3398,-72.021 332.8034,-59.8452"/>
<polygon fill="#000000" stroke="#000000" points="335.5308,-62.0416 339.394,-52.1762 330.2218,-57.4792 335.5308,-62.0416"/>
</g>
<!-- r_fig02png -->
<g id="node11" class="node">
<title>r_fig02png</title>
<polygon fill="none" stroke="#000000" points="478.0654,-52 407.9629,-52 407.9629,-16 478.0654,-16 478.0654,-52"/>
<text text-anchor="middle" x="443.0142" y="-29.8" font-family="Times,serif" font-size="14.00" fill="#000000">fig02.png</text>
</g>
<!-- s_fig02&#45;&gt;r_fig02png -->
<g id="edge10" class="edge">
<title>s_fig02&#45;&gt;r_fig02png</title>
<path fill="none" stroke="#000000" d="M425.7878,-94.1355C428.4693,-84.7746 431.8869,-72.8442 434.9699,-62.0818"/>
<polygon fill="#000000" stroke="#000000" points="438.399,-62.8203 437.7883,-52.2431 431.6697,-60.8926 438.399,-62.8203"/>
</g>
<!-- r_fig03png -->
<g id="node12" class="node">
<title>r_fig03png</title>
<polygon fill="none" stroke="#000000" points="566.0654,-52 495.9629,-52 495.9629,-16 566.0654,-16 566.0654,-52"/>
<text text-anchor="middle" x="531.0142" y="-29.8" font-family="Times,serif" font-size="14.00" fill="#000000">fig03.png</text>
</g>
<!-- s_fig03&#45;&gt;r_fig03png -->
<g id="edge11" class="edge">
<title>s_fig03&#45;&gt;r_fig03png</title>
<path fill="none" stroke="#000000" d="M548.2405,-94.1355C545.559,-84.7746 542.1414,-72.8442 539.0584,-62.0818"/>
<polygon fill="#000000" stroke="#000000" points="542.3586,-60.8926 536.2401,-52.2431 535.6293,-62.8203 542.3586,-60.8926"/>
</g>
<!-- r_qfhtml -->
<g id="node13" class="node">
<title>r_qfhtml</title>
<polygon fill="none" stroke="#000000" points="691.8774,-52 584.1509,-52 584.1509,-16 691.8774,-16 691.8774,-52"/>
<text text-anchor="middle" x="638.0142" y="-29.8" font-family="Times,serif" font-size="14.00" fill="#000000">quick&#45;facts.html</text>
</g>
<!-- s_quick_facts&#45;&gt;r_qfhtml -->
<g id="edge12" class="edge">
<title>s_quick_facts&#45;&gt;r_qfhtml</title>
<path fill="none" stroke="#000000" d="M701.4063,-95.6268C690.7562,-85.2733 676.3943,-71.3113 664.0336,-59.2948"/>
<polygon fill="#000000" stroke="#000000" points="666.2569,-56.5749 656.647,-52.1139 661.3775,-61.594 666.2569,-56.5749"/>
</g>
</g>
</svg>

